<?xml version="1.0" encoding="utf-8"?>
<!-- Generator: Adobe Illustrator 23.0.1, SVG Export Plug-In . SVG Version: 6.00 Build 0)  -->
<svg version="1.1" id="Layer_1" xmlns="http://www.w3.org/2000/svg" xmlns:xlink="http://www.w3.org/1999/xlink" x="0px" y="0px"
	 viewBox="0 0 164 37" style="enable-background:new 0 0 164 37;" xml:space="preserve">
<title>White_Logo</title>
<desc>Created with Sketch.</desc>
<g id="Symbols">
	<g id="Header">
		<g id="White_Logo">
			<g>
				<g id="Group-594" transform="translate(0.000000, 0.720000)">
					<path id="Fill-584" d="M77.8,24.2h-2.4v-7.7c0-1.8-0.1-3-0.3-3.6c-0.2-0.6-0.4-1.2-0.7-1.6c-0.3-0.4-0.7-0.8-1.3-1
						C72.6,10,72,9.9,71.2,9.9c-0.7,0-1.4,0.2-2.1,0.5c-0.7,0.4-1.3,0.9-1.8,1.5s-0.8,1.3-1,2S66,16,66,18.2v6h-2.5V8H66v2.4
						c1.6-1.9,3.5-2.9,5.7-2.9c1.2,0,2.2,0.3,3.2,0.9s1.7,1.4,2.1,2.5c0.5,1.1,0.7,2.7,0.7,4.9v8.4H77.8z M58.8,14.4
						c-0.3-1.4-1-2.5-2-3.2c-1.1-0.8-2.3-1.2-3.6-1.2c-2.8,0-4.6,1.5-5.5,4.4H58.8z M61.5,16.6H47.3c0.1,1.8,0.7,3.2,1.8,4.3
						s2.4,1.6,3.9,1.6c2.6,0,4.6-1.3,6-3.8l2.1,1.1c-0.9,1.7-2,3-3.3,3.8s-2.8,1.2-4.6,1.2c-2.4,0-4.5-0.8-6-2.5
						c-1.6-1.7-2.4-3.7-2.4-6.1s0.8-4.4,2.4-6.1c1.6-1.7,3.6-2.5,5.9-2.5S57.4,8.4,59,10C60.6,11.6,61.5,13.8,61.5,16.6z M40.8,14.4
						c-0.3-1.4-1-2.5-2-3.2c-1.1-0.8-2.3-1.2-3.6-1.2c-2.8,0-4.6,1.5-5.5,4.4H40.8z M43.5,16.6H29.3c0.1,1.8,0.7,3.2,1.8,4.3
						s2.4,1.6,3.9,1.6c2.6,0,4.6-1.3,6-3.8l2.1,1.1c-0.9,1.7-2,3-3.3,3.8s-2.8,1.2-4.6,1.2c-2.4,0-4.5-0.8-6-2.5
						c-1.6-1.7-2.4-3.7-2.4-6.1s0.8-4.4,2.4-6.1s3.6-2.5,5.9-2.5c2.4,0,4.3,0.8,5.9,2.4C42.6,11.6,43.4,13.8,43.5,16.6z M26.7,8.2
						l-1.3,2.1c-0.3-0.2-0.7-0.3-1-0.3c-0.6,0-1.2,0.3-1.7,0.9c-0.5,0.6-0.9,1.4-1.1,2.4s-0.4,2.8-0.4,5.3v5.6h-2.5V8h2.5v1.8
						c0.5-0.7,1-1.3,1.5-1.6c0.5-0.4,1.1-0.5,1.7-0.5S25.9,7.8,26.7,8.2z M15,15.9c0-1.7-0.6-3.1-1.7-4.2S10.8,10,9.1,10
						s-3.2,0.6-4.4,1.8C3.6,13,3,14.4,3,16s0.6,2.9,1.7,4s2.6,1.7,4.3,1.7c1.8,0,3.2-0.5,4.3-1.6C14.5,18.9,15,17.6,15,15.9z
						 M17.4,20.4c0,2.1-0.2,3.7-0.6,4.8c-0.4,1-0.9,1.9-1.7,2.6c-0.7,0.7-1.6,1.3-2.7,1.6c-1,0.4-2.2,0.6-3.4,0.6
						c-4.2,0-7-1.8-8.5-5.4h2.6c1.2,2.1,3.1,3.1,5.7,3.1c1.2,0,2.3-0.2,3.3-0.7s1.7-1.1,2.1-1.9s0.6-2,0.6-3.7v-0.1
						c-0.8,0.9-1.7,1.5-2.8,2C11,23.7,9.9,24,8.7,24c-2.3,0-4.3-0.8-5.9-2.4s-2.4-3.5-2.3-5.7c0-2.3,0.8-4.2,2.5-5.9
						c1.7-1.6,3.6-2.4,5.9-2.4s4.3,0.9,6,2.8V8h2.5V20.4z"/>
					<path id="Fill-586" d="M129.7,14.8c-0.3-1.5-1-2.7-2.1-3.5c-1.1-0.9-2.4-1.3-3.8-1.3c-3,0-4.9,1.6-5.8,4.8H129.7z M123.7,22.9
						c2.7,0,4.7-1.3,6-3.8l1.7,0.9c-1.7,3.2-4.2,4.8-7.6,4.8c-2.4,0-4.3-0.8-5.9-2.5c-1.5-1.6-2.3-3.6-2.3-5.9s0.8-4.3,2.3-5.9
						c1.6-1.6,3.5-2.5,5.8-2.5s4.2,0.8,5.8,2.3s2.4,3.6,2.4,6.3h-14.2c0.1,1.9,0.7,3.4,1.8,4.6C120.7,22.3,122.1,22.9,123.7,22.9z
						 M111.5,24.2h2V2.3h-2V24.2z M106.9,24.2h2.1V8.4h-2.1V24.2z M106.2,4c0-0.5,0.2-0.9,0.5-1.2s0.7-0.5,1.2-0.5s0.9,0.2,1.2,0.5
						c0.3,0.3,0.5,0.7,0.5,1.2s-0.2,0.9-0.5,1.2c-0.3,0.3-0.7,0.5-1.2,0.5s-0.9-0.2-1.2-0.5C106.4,4.8,106.2,4.4,106.2,4z M80.6,8.4
						h2v2.7C84,9.1,85.8,8,88,8c1.2,0,2.2,0.3,3.1,1s1.5,1.6,1.9,2.8c0.7-1.2,1.5-2.2,2.5-2.8c1-0.7,2.2-1,3.5-1s2.5,0.5,3.6,1.5
						s1.6,3,1.6,6.1v8.6h-2.1v-8.6c0-1.4-0.1-2.5-0.3-3.2c-0.2-0.7-0.6-1.3-1.2-1.7c-0.6-0.5-1.4-0.7-2.4-0.7s-1.9,0.3-2.8,1
						s-1.4,1.5-1.8,2.5c-0.3,1-0.5,2.5-0.5,4.6v6.2h-2v-8.1c0-1.7-0.1-2.9-0.3-3.6c-0.2-0.7-0.6-1.3-1.2-1.8s-1.4-0.7-2.3-0.7
						s-1.7,0.3-2.5,0.8s-1.4,1.2-1.8,2.2c-0.4,0.9-0.7,2.5-0.7,4.6v6.7h-2v-16H80.6z"/>
					<g id="Group-590" transform="translate(132.000000, 0.000000)">
						<g id="Clip-589">
						</g>
						<path id="Fill-588" d="M18.7,5.2l-0.3-0.4c1.5-0.5,3.1-0.8,4.7-1C23.1,3.7,21.3,4.1,18.7,5.2z M3.7,13
							c1.1-0.9,2.3-1.9,3.7-2.8l0.7,1c-1.2,1-2.4,2.1-3.5,3.3L3.7,13z M12.7,8c-1.2,0.7-2.5,1.5-3.7,2.4L8.4,9.5
							c1.2-0.8,2.5-1.5,3.8-2.3L12.7,8z M13.2,6.8C14.5,6.1,16,5.5,17.4,5l0.4,0.5c-1.3,0.5-2.7,1.2-4.1,2L13.2,6.8z M0.8,15.6
							c0.6-0.5,1.3-1.2,2.1-1.9L4,15.2c-1.5,1.7-2.7,3.7-3.7,6c20.5,7,26.8-15,26.8-15c1.6-4.9,4.1-5.4,4.1-5.4
							C9.3-2.7,2.8,8.5,0.8,15.6z"/>
					</g>
					<g id="Group-593" transform="translate(34.000000, 26.000000)">
						<g id="Clip-592">
						</g>
						<path id="Fill-591" d="M97.1,7.4c0-0.2,0.1-0.3,0.2-0.5c0.1-0.1,0.3-0.2,0.5-0.2s0.3,0.1,0.5,0.2s0.2,0.3,0.2,0.5
							s-0.1,0.3-0.2,0.5C98.2,8.1,98,8,97.8,8s-0.3-0.1-0.5-0.2C97.2,7.7,97.1,7.6,97.1,7.4z M95.5,5.1c0-0.7-0.2-1.2-0.6-1.6
							c-0.4-0.5-1-0.7-1.6-0.7S92.1,3,91.7,3.5s-0.6,1-0.6,1.6s0.2,1.2,0.7,1.6c0.4,0.5,1,0.7,1.6,0.7s1.1-0.2,1.6-0.7
							C95.3,6.3,95.5,5.8,95.5,5.1z M96.2,0v7.9h-0.7v-1c-0.7,0.8-1.4,1.2-2.2,1.2c-0.8,0-1.5-0.3-2.1-0.9s-0.9-1.3-0.9-2.1
							s0.3-1.5,0.9-2.1s1.3-0.9,2.1-0.9c0.9,0,1.7,0.4,2.3,1.2V0H96.2z M89.2,4.5c-0.1-0.5-0.4-1-0.8-1.3C88,2.9,87.6,2.8,87,2.8
							c-1.1,0-1.8,0.6-2.1,1.7H89.2z M87,7.4c1,0,1.7-0.5,2.2-1.4l0.6,0.3C89.2,7.4,88.3,8,87.1,8c-0.9,0-1.6-0.3-2.1-0.9
							c-0.6-0.6-0.8-1.3-0.8-2.1s0.3-1.5,0.8-2.1S86.3,2,87.1,2c0.8,0,1.5,0.3,2.1,0.8C89.7,3.4,90,4.2,90,5.1h-5.1
							c0,0.7,0.2,1.2,0.6,1.7C85.9,7.2,86.4,7.4,87,7.4z M81.7,2.2h0.8V3c0.2-0.3,0.4-0.6,0.6-0.7c0.2-0.2,0.4-0.2,0.6-0.2
							s0.5,0.1,0.7,0.2L84,2.9c-0.1-0.1-0.2-0.1-0.3-0.1c-0.2,0-0.4,0.1-0.6,0.3S82.8,3.6,82.7,4s-0.1,1-0.1,2v1.9h-0.8L81.7,2.2
							L81.7,2.2z M80.7,4.5c-0.1-0.5-0.3-1-0.8-1.3c-0.4-0.3-0.9-0.5-1.4-0.5c-1.1,0-1.8,0.6-2.1,1.7L80.7,4.5L80.7,4.5z M78.5,7.4
							c1,0,1.7-0.5,2.2-1.4l0.6,0.3C80.7,7.4,79.8,8,78.6,8c-0.9,0-1.6-0.3-2.1-0.9c-0.6-0.6-0.8-1.3-0.8-2.1s0.3-1.5,0.8-2.1
							C77.1,2.3,77.8,2,78.6,2c0.8,0,1.5,0.3,2.1,0.8s0.9,1.3,0.9,2.3h-5.1c0,0.7,0.2,1.2,0.6,1.7C77.4,7.2,77.9,7.4,78.5,7.4z
							 M70.3,2.2h0.8L73,6.5l1.9-4.3h0.8L73,8.1h-0.1L70.3,2.2z M69.4,7.9h0.7V2.2h-0.7V7.9z M69.2,0.6c0-0.2,0.1-0.3,0.2-0.4
							C69.5,0.1,69.6,0,69.8,0s0.3,0.1,0.4,0.2s0.2,0.3,0.2,0.4s0,0.3-0.2,0.4c-0.1,0.1-0.3,0.2-0.4,0.2s-0.3,0-0.4-0.2
							C69.3,0.9,69.2,0.8,69.2,0.6z M68.2,7.9h0.7V0h-0.7V7.9z M66.9,4.5c-0.1-0.5-0.3-1-0.8-1.3s-0.9-0.5-1.4-0.5
							c-1.1,0-1.8,0.6-2.1,1.7L66.9,4.5L66.9,4.5z M64.8,7.4c1,0,1.7-0.5,2.2-1.4l0.6,0.3C67,7.4,66.1,8,64.9,8
							c-0.9,0-1.6-0.3-2.1-0.9C62.2,6.5,62,5.8,62,5s0.3-1.5,0.8-2.1S64.1,2,64.9,2c0.8,0,1.5,0.3,2.1,0.8s0.9,1.3,0.9,2.3h-5.1
							c0,0.7,0.2,1.2,0.6,1.7C63.7,7.2,64.2,7.4,64.8,7.4z M60.7,5.1c0-0.7-0.2-1.2-0.6-1.6c-0.4-0.5-1-0.7-1.6-0.7S57.3,3,56.9,3.5
							c-0.4,0.5-0.6,1-0.6,1.6s0.2,1.2,0.7,1.6c0.4,0.5,1,0.7,1.6,0.7s1.1-0.2,1.6-0.7C60.4,6.3,60.7,5.8,60.7,5.1z M61.3,0v7.9
							h-0.7v-1c-0.7,0.8-1.4,1.2-2.2,1.2s-1.5-0.3-2.1-0.9s-0.9-1.3-0.9-2.1s0.3-1.5,0.9-2.1c0.6-0.6,1.3-0.9,2.1-0.9
							c0.9,0,1.7,0.4,2.3,1.2V0H61.3z M51.9,7.4c0-0.2,0.1-0.3,0.2-0.5c0.1-0.1,0.3-0.2,0.5-0.2s0.3,0.1,0.5,0.2
							c0.1,0.1,0.2,0.3,0.2,0.5S53.1,7.7,53,7.9C52.9,8,52.7,8,52.5,8S52.2,7.9,52,7.8C52,7.7,51.9,7.6,51.9,7.4z M46.2,2.2H47
							l2,4.4l1.9-4.4h0.8L48.3,10h-0.8l1.1-2.5L46.2,2.2z M45.5,5c0-0.6-0.2-1.1-0.6-1.6C44.5,3,44,2.8,43.3,2.8
							c-0.7,0-1.2,0.2-1.6,0.7C41.2,3.9,41,4.4,41,5s0.2,1.1,0.6,1.5c0.4,0.4,1,0.6,1.6,0.6c0.7,0,1.2-0.2,1.6-0.6
							C45.3,6.1,45.5,5.6,45.5,5z M45.5,2.2h0.7v4.4c0,0.8-0.1,1.3-0.2,1.7c-0.1,0.4-0.3,0.7-0.6,0.9s-0.6,0.4-0.9,0.6
							c-0.4,0.1-0.8,0.2-1.2,0.2c-1.5,0-2.5-0.6-2.9-1.8h0.8c0.4,0.7,1.1,1.1,2.1,1.1c0.5,0,0.9-0.1,1.2-0.3
							c0.4-0.2,0.6-0.4,0.8-0.7C45.4,8,45.5,7.6,45.5,7V6.7c-0.3,0.4-0.6,0.6-1,0.8c-0.4,0.2-0.8,0.3-1.3,0.3
							c-0.8,0-1.5-0.3-2.1-0.8s-0.8-1.2-0.8-2s0.3-1.5,0.9-2c0.6-0.6,1.3-0.9,2.1-0.9s1.6,0.4,2.2,1.1C45.5,3.2,45.5,2.2,45.5,2.2z
							 M39.3,5.1c0-0.6-0.2-1.2-0.7-1.6c-0.4-0.5-1-0.7-1.6-0.7S35.9,3,35.5,3.5s-0.7,1-0.7,1.6s0.2,1.2,0.6,1.6
							c0.4,0.4,0.9,0.7,1.6,0.7s1.2-0.2,1.6-0.7C39,6.3,39.3,5.7,39.3,5.1z M34.1,5.1c0-0.8,0.3-1.5,0.9-2.1
							c0.6-0.6,1.3-0.9,2.1-0.9s1.5,0.3,2.1,0.9C39.7,3.5,40,4.2,40,5.1c0,0.8-0.3,1.5-0.9,2.1c-0.6,0.6-1.3,0.9-2.1,0.9
							s-1.5-0.3-2.1-0.9C34.4,6.6,34.1,5.9,34.1,5.1z M32.9,7.9h0.7V0h-0.7V7.9z M31.8,5.1c0-0.6-0.2-1.2-0.7-1.6
							c-0.4-0.5-1-0.7-1.6-0.7c-0.5,0-1,0.2-1.5,0.7c-0.4,0.5-0.7,1-0.7,1.6s0.2,1.2,0.6,1.6c0.4,0.4,0.9,0.7,1.6,0.7
							s1.2-0.2,1.6-0.7C31.6,6.3,31.8,5.7,31.8,5.1z M26.6,5.1c0-0.8,0.3-1.5,0.9-2.1s1.3-0.9,2.1-0.9c0.8,0,1.5,0.3,2.1,0.9
							c0.6,0.6,0.9,1.3,0.9,2.1s-0.3,1.5-0.9,2.1s-1.3,0.9-2.1,0.9c-0.8,0-1.5-0.3-2.1-0.9C26.9,6.6,26.6,5.9,26.6,5.1z M21.2,2.2
							H22v1C22.6,2.4,23.3,2,24.1,2c0.4,0,0.8,0.1,1.2,0.3c0.3,0.2,0.6,0.5,0.7,0.9s0.2,0.9,0.2,1.7v2.9h-0.7V5.2
							c0-0.7,0-1.1-0.1-1.3s-0.2-0.4-0.3-0.6S24.8,3,24.6,2.9c-0.2-0.1-0.4-0.1-0.7-0.1S23.4,2.9,23.1,3c-0.3,0.1-0.5,0.3-0.7,0.6
							C22.2,3.7,22.1,4,22,4.3c0,0.2,0,0.7,0,1.5v2.1h-0.7L21.2,2.2L21.2,2.2z M15.5,0h0.7v3.2C16.8,2.4,17.5,2,18.3,2
							c0.4,0,0.8,0.1,1.2,0.3c0.3,0.2,0.6,0.5,0.7,0.9s0.2,0.9,0.2,1.7v2.9h-0.7V5.2c0-0.6,0-1-0.1-1.2c0-0.2-0.1-0.4-0.2-0.6
							c0-0.3-0.2-0.4-0.4-0.5s-0.5-0.2-0.7-0.2c-0.3,0-0.6,0.1-0.8,0.2C17.2,3,17,3.2,16.8,3.5c-0.2,0.2-0.3,0.5-0.4,0.8
							s-0.1,0.8-0.1,1.6V8h-0.7L15.5,0L15.5,0z M15,3.4l-0.6,0.4c-0.5-0.7-1.2-1-2.1-1c-0.7,0-1.3,0.2-1.7,0.7C10.2,3.8,10,4.4,10,5
							c0,0.7,0.2,1.2,0.7,1.7s1,0.7,1.7,0.7c0.8,0,1.5-0.3,2.1-1L15,6.8c-0.3,0.4-0.7,0.7-1.2,1c-0.5,0.2-1,0.3-1.6,0.3
							c-0.9,0-1.6-0.3-2.2-0.9C9.5,6.6,9.2,5.9,9.2,5.1S9.5,3.5,10.1,3c0.6-0.6,1.4-0.9,2.3-0.9c0.6,0,1.1,0.1,1.5,0.4
							C14.4,2.6,14.8,3,15,3.4z M8.1,4.5C8,4,7.8,3.5,7.4,3.2S6.5,2.8,6,2.8c-1.1,0-1.8,0.6-2.1,1.7H8.1z M6,7.4
							c1,0,1.7-0.5,2.2-1.4l0.6,0.3C8.1,7.5,7.2,8.1,6,8.1c-0.9,0-1.6-0.3-2.1-0.9S3.1,5.9,3.1,5.1S3.4,3.6,3.9,3S5.2,2.1,6,2.1
							s1.5,0.3,2.1,0.8C8.6,3.4,8.9,4.2,9,5.1H3.8c0,0.7,0.2,1.2,0.6,1.7C4.9,7.2,5.4,7.4,6,7.4z M2,7c0,0.2,0,0.3,0,0.3
							s0.2,0.1,0.4,0.1h0.4V8C2.6,8.1,2.3,8.1,2.2,8.1C1.8,8.1,1.6,8,1.4,7.9C1.3,7.7,1.2,7.4,1.2,7.1V2.8h-1V2.2h1V0H2v2.2h1.2v0.6
							H2V7z"/>
					</g>
				</g>
			</g>
		</g>
	</g>
</g>
</svg>
